<svg width="507" height="212" viewBox="0 0 507 212" fill="none" xmlns="http://www.w3.org/2000/svg">
<path d="M85.5 112.125C85.9167 112.125 86.2917 112.021 86.625 111.812V106.125C89.4583 104.208 93.4167 102.646 98.5 101.438C103.625 100.229 108.604 99.625 113.438 99.625C115.646 101.875 117.479 105.25 118.938 109.75C120.438 114.208 121.229 118.25 121.312 121.875C120.479 123.542 119.062 125.333 117.062 127.25C115.104 129.167 112.729 130.938 109.938 132.562C103.021 136.646 95.0833 138.688 86.125 138.688C73.2917 138.688 63.1875 134.958 55.8125 127.5C48.1875 119.958 44.375 109.521 44.375 96.1875C44.375 82.8125 48.5417 72.3125 56.875 64.6875C60.5417 61.2708 64.8125 58.7083 69.6875 57C74.5625 55.25 79.6875 54.375 85.0625 54.375C95.5625 54.375 104.167 56.9167 110.875 62C117.583 67.0833 120.938 73.3542 120.938 80.8125C120.938 86.4375 119.208 90.6042 115.75 93.3125C112.292 95.9792 107.604 97.3125 101.688 97.3125C98.4375 97.3125 95.1667 96.5208 91.875 94.9375C88.5833 93.3125 86.625 91.7917 86 90.375C86 86.9583 86.0625 84.2708 86.1875 82.3125C86.1042 82.2708 85.9583 82.25 85.75 82.25H85.3125C84.6875 82.25 84.1875 82.4375 83.8125 82.8125C83.4792 83.1458 83.1667 83.875 82.875 85C82.625 86.125 82.5 89.1875 82.5 94.1875C82.5 106.146 83.5 112.125 85.5 112.125ZM155.875 102.188V113.125C156.167 113.417 156.646 113.562 157.312 113.562C157.979 113.562 158.458 113.333 158.75 112.875C159.042 112.417 159.188 111.625 159.188 110.5V101.562C159.188 97.5625 159.021 94.9167 158.688 93.625C158.354 92.2917 157.729 91.625 156.812 91.625C156.229 91.625 155.729 91.8333 155.312 92.25C155.688 96.375 155.875 99.6875 155.875 102.188ZM132.5 129.875C125.667 123.292 122.25 114.375 122.25 103.125C122.25 91.8333 125.458 82.9375 131.875 76.4375C138.333 69.8958 146.792 66.625 157.25 66.625C167.708 66.625 176.167 70.0208 182.625 76.8125C189.042 83.6042 192.25 92.4583 192.25 103.375C192.25 114.25 189.146 122.896 182.938 129.312C176.771 135.729 168.375 138.938 157.75 138.938C147.125 138.938 138.708 135.917 132.5 129.875ZM228.375 102.188V113.125C228.667 113.417 229.146 113.562 229.812 113.562C230.479 113.562 230.958 113.333 231.25 112.875C231.542 112.417 231.688 111.625 231.688 110.5V101.562C231.688 97.5625 231.521 94.9167 231.188 93.625C230.854 92.2917 230.229 91.625 229.312 91.625C228.729 91.625 228.229 91.8333 227.812 92.25C228.188 96.375 228.375 99.6875 228.375 102.188ZM205 129.875C198.167 123.292 194.75 114.375 194.75 103.125C194.75 91.8333 197.958 82.9375 204.375 76.4375C210.833 69.8958 219.292 66.625 229.75 66.625C240.208 66.625 248.667 70.0208 255.125 76.8125C261.542 83.6042 264.75 92.4583 264.75 103.375C264.75 114.25 261.646 122.896 255.438 129.312C249.271 135.729 240.875 138.938 230.25 138.938C219.625 138.938 211.208 135.917 205 129.875ZM299.375 113.5L296.375 114.812C296.375 117.604 296.917 120.583 298 123.75C298.917 126.75 300.188 129.417 301.812 131.75C297.688 136 291.958 138.125 284.625 138.125C280.417 138.125 276.771 137.021 273.688 134.812C270.104 132.312 268.312 129 268.312 124.875V51.9375C270.312 50.7708 272.708 49.8125 275.5 49.0625C278.333 48.3125 281.188 47.9375 284.062 47.9375C288.854 47.9375 292.812 48.875 295.938 50.75C299.479 52.9583 301.25 56.125 301.25 60.25V66.875C301.25 72.4167 300.271 77.8333 298.312 83.125C297.938 83.6667 297.271 84.4583 296.312 85.5C295.354 86.5 294.583 87.4167 294 88.25C293.458 89.0833 293.188 89.8125 293.188 90.4375C293.188 91.0208 293.688 91.5625 294.688 92.0625C297.938 89.0208 300.479 85.7083 302.312 82.125C304.188 78.5417 305.896 73.7917 307.438 67.875C307.979 67.7917 308.604 67.6875 309.312 67.5625C310.021 67.4375 311.188 67.25 312.812 67C314.479 66.7083 315.646 66.5625 316.312 66.5625C322.729 66.5625 327.729 68.0417 331.312 71C334.896 73.9167 336.688 77.9375 336.688 83.0625C336.688 88.1875 335.062 92.5833 331.812 96.25C328.812 99.5417 324.917 102.021 320.125 103.688C323.958 105.938 328.792 107.542 334.625 108.5C336.875 112.583 338 116.938 338 121.562C338 126.146 336.542 129.979 333.625 133.062C330.375 136.438 325.875 138.125 320.125 138.125C314.417 138.125 309.708 135.938 306 131.562C302.333 127.146 300.125 121.125 299.375 113.5ZM372.25 80.75V105.5C372.25 111.708 373.75 115.75 376.75 117.625C376.792 117.833 376.812 118.229 376.812 118.812V119.938C376.812 126.062 375.146 130.667 371.812 133.75C368.729 136.667 364.604 138.125 359.438 138.125C354.312 138.125 350.083 136.667 346.75 133.75C342.542 130.042 340.438 124.625 340.438 117.5V76.875C341.188 76.3333 342 75.8958 342.875 75.5625C343.75 75.2292 344.667 74.8125 345.625 74.3125C343.833 73.3958 342.208 71.8125 340.75 69.5625C339.292 67.2708 338.562 64.6042 338.562 61.5625C338.562 56.3125 340.292 52.0208 343.75 48.6875C347.208 45.3542 351.438 43.6875 356.438 43.6875C361.479 43.6875 365.688 45.3958 369.062 48.8125C372.479 52.1875 374.188 56.4375 374.188 61.5625C374.188 65.6875 372.896 69.3125 370.312 72.4375C367.729 75.5208 364.583 77.4583 360.875 78.25C360.875 79.8333 361.479 80.625 362.688 80.625C364.812 80.625 366.979 79.7917 369.188 78.125C370.854 79.4167 371.875 80.2917 372.25 80.75ZM385 97.5H388.875C390.958 97.5 392 96.8125 392 95.4375C392 95.2708 391.958 95.0208 391.875 94.6875H377.875C376.958 91.7708 376.5 88.5208 376.5 84.9375C376.5 81.3125 376.771 78.375 377.312 76.125C379.688 74.625 382.958 72.3333 387.125 69.25C388.292 66.4167 389.812 61.9167 391.688 55.75C391.938 54.9167 392.229 54.1042 392.562 53.3125C395.812 52.4792 399.521 52.0625 403.688 52.0625C407.854 52.0625 411.958 52.5 416 53.375V68.6875H426.812C429.229 72.3542 430.438 76.6667 430.438 81.625C430.438 83.875 430.125 86.1875 429.5 88.5625C428.875 90.9375 427.979 92.9583 426.812 94.625H417.875V104.062C417.875 109.396 420.104 112.062 424.562 112.062H427.25C428.125 115.229 428.562 117.979 428.562 120.312C428.562 126.062 426.75 130.479 423.125 133.562C419.542 136.604 414.312 138.125 407.438 138.125C400.604 138.125 395.146 136.229 391.062 132.438C387.021 128.604 385 122.979 385 115.562V97.5ZM449.75 78.0625C449.75 77.6458 449.667 77.375 449.5 77.25C449.375 77.0833 449.229 76.875 449.062 76.625C447.604 77.5 445.583 77.9375 443 77.9375C439.542 77.9375 436.667 76.7917 434.375 74.5C431.875 72.125 430.625 69.0833 430.625 65.375C430.625 60.75 432.062 57.1458 434.938 54.5625C437.854 51.9375 441.583 50.625 446.125 50.625C451.417 50.625 455.583 52.4375 458.625 56.0625C461.708 59.6875 463.25 64.2708 463.25 69.8125C463.25 76.6875 461.396 82.0208 457.688 85.8125C454.021 89.5625 449.625 91.4375 444.5 91.4375C441.292 91.4375 438.708 90.7292 436.75 89.3125C434.792 87.8542 433.812 85.8542 433.812 83.3125C433.812 81.3542 434.312 79.7917 435.312 78.625C437.604 80.0417 439.938 80.75 442.312 80.75C444.729 80.75 446.562 80.5208 447.812 80.0625C449.104 79.6042 449.75 78.9375 449.75 78.0625Z" fill="white"/>
<path d="M86.625 111.812L88.215 114.356L89.625 113.475V111.812H86.625ZM86.625 106.125L84.9441 103.64L83.625 104.532V106.125H86.625ZM98.5 101.438L97.8116 98.5176L97.8062 98.5188L98.5 101.438ZM113.438 99.625L115.579 97.5236L114.697 96.625H113.438V99.625ZM118.938 109.75L116.084 110.675L116.089 110.691L116.094 110.707L118.938 109.75ZM121.312 121.875L123.996 123.217L124.329 122.551L124.312 121.806L121.312 121.875ZM117.062 127.25L114.987 125.084L114.975 125.095L114.964 125.106L117.062 127.25ZM109.938 132.562L108.428 129.97L108.42 129.974L108.412 129.979L109.938 132.562ZM55.8125 127.5L57.9457 125.391L57.934 125.379L57.9221 125.367L55.8125 127.5ZM56.875 64.6875L58.9002 66.9008L58.9102 66.8916L58.9202 66.8823L56.875 64.6875ZM69.6875 57L70.6796 59.8312L70.6904 59.8274L70.7011 59.8236L69.6875 57ZM115.75 93.3125L117.582 95.6882L117.591 95.6814L117.6 95.6744L115.75 93.3125ZM91.875 94.9375L90.547 97.6276L90.5608 97.6343L90.5746 97.641L91.875 94.9375ZM86 90.375H83V91.0074L83.2552 91.5859L86 90.375ZM86.1875 82.3125L89.1814 82.5036L89.3081 80.5187L87.5291 79.6292L86.1875 82.3125ZM82.875 85L79.971 84.2471L79.9578 84.2979L79.9464 84.3492L82.875 85ZM85.5 115.125C86.4437 115.125 87.3758 114.881 88.215 114.356L85.035 109.269C85.1102 109.221 85.1979 109.182 85.2908 109.156C85.3825 109.131 85.456 109.125 85.5 109.125V115.125ZM89.625 111.812V106.125H83.625V111.812H89.625ZM88.3059 108.61C90.7242 106.974 94.2966 105.52 99.1938 104.356L97.8062 98.5188C92.5368 99.7714 88.1925 101.443 84.9441 103.64L88.3059 108.61ZM99.1884 104.357C104.108 103.198 108.856 102.625 113.438 102.625V96.625C108.353 96.625 103.142 97.2607 97.8116 98.5176L99.1884 104.357ZM111.296 101.726C113.057 103.52 114.703 106.414 116.084 110.675L121.791 108.825C120.255 104.086 118.234 100.23 115.579 97.5236L111.296 101.726ZM116.094 110.707C117.525 114.959 118.239 118.695 118.313 121.944L124.312 121.806C124.22 117.805 123.35 113.458 121.781 108.793L116.094 110.707ZM118.629 120.533C118.005 121.781 116.848 123.301 114.987 125.084L119.138 129.416C121.277 127.366 122.953 125.302 123.996 123.217L118.629 120.533ZM114.964 125.106C113.211 126.822 111.043 128.448 108.428 129.97L111.447 135.155C114.416 133.427 116.997 131.512 119.161 129.394L114.964 125.106ZM108.412 129.979C102.009 133.759 94.6103 135.688 86.125 135.688V141.688C95.5564 141.688 104.032 139.533 111.463 135.146L108.412 129.979ZM86.125 135.688C73.9023 135.688 64.6358 132.156 57.9457 125.391L53.6793 129.609C61.7392 137.76 72.6811 141.688 86.125 141.688V135.688ZM57.9221 125.367C50.9987 118.519 47.375 108.926 47.375 96.1875H41.375C41.375 110.116 45.3763 121.397 53.7029 129.633L57.9221 125.367ZM47.375 96.1875C47.375 83.4854 51.3025 73.8526 58.9002 66.9008L54.8498 62.4742C45.7808 70.7724 41.375 82.1396 41.375 96.1875H47.375ZM58.9202 66.8823C62.2742 63.757 66.1835 61.4068 70.6796 59.8312L68.6954 54.1688C63.4415 56.0099 58.8092 58.7846 54.8298 62.4927L58.9202 66.8823ZM70.7011 59.8236C75.2387 58.1947 80.0198 57.375 85.0625 57.375V51.375C79.3552 51.375 73.8863 52.3053 68.6739 54.1764L70.7011 59.8236ZM85.0625 57.375C95.073 57.375 102.994 59.7919 109.063 64.3911L112.687 59.6089C105.34 54.0414 96.052 51.375 85.0625 51.375V57.375ZM109.063 64.3911C115.133 68.9906 117.938 74.4231 117.938 80.8125H123.938C123.938 72.2852 120.034 65.1761 112.687 59.6089L109.063 64.3911ZM117.938 80.8125C117.938 85.7977 116.436 88.9649 113.9 90.9506L117.6 95.6744C121.981 92.2435 123.938 87.0773 123.938 80.8125H117.938ZM113.918 90.9368C111.143 93.0763 107.174 94.3125 101.688 94.3125V100.312C108.034 100.312 113.44 98.882 117.582 95.6882L113.918 90.9368ZM101.688 94.3125C98.9407 94.3125 96.112 93.6465 93.1754 92.234L90.5746 97.641C94.2214 99.3952 97.9343 100.312 101.688 100.312V94.3125ZM93.203 92.2474C91.6607 91.4861 90.5411 90.8016 89.7776 90.2087C88.9794 89.5889 88.7705 89.2225 88.7448 89.1641L83.2552 91.5859C83.8545 92.9442 84.9372 94.0465 86.0974 94.9475C87.2923 95.8755 88.7976 96.7639 90.547 97.6276L93.203 92.2474ZM89 90.375C89 86.9829 89.0624 84.3685 89.1814 82.5036L83.1936 82.1214C83.0626 84.1731 83 86.9337 83 90.375H89ZM87.5291 79.6292C86.762 79.2457 85.9846 79.25 85.75 79.25V85.25C85.7653 85.25 85.7032 85.2515 85.5914 85.2355C85.5326 85.2271 85.4397 85.211 85.3239 85.1795C85.2112 85.1487 85.0421 85.0939 84.8459 84.9958L87.5291 79.6292ZM85.75 79.25H85.3125V85.25H85.75V79.25ZM85.3125 79.25C84.0447 79.25 82.7284 79.654 81.6912 80.6912L85.9338 84.9338C85.8163 85.0513 85.6702 85.1441 85.5221 85.1996C85.3832 85.2517 85.2996 85.25 85.3125 85.25V79.25ZM81.6912 80.6912C81.1316 81.2508 80.7887 81.9189 80.5707 82.4276C80.3344 82.979 80.1391 83.5989 79.971 84.2471L85.779 85.7529C85.9026 85.2761 86.0094 84.9689 86.0856 84.7911C86.1224 84.7052 86.1394 84.6794 86.13 84.695C86.1232 84.706 86.0637 84.804 85.9338 84.9338L81.6912 80.6912ZM79.9464 84.3492C79.7556 85.208 79.6579 86.5081 79.5962 88.0183C79.5314 89.6075 79.5 91.6686 79.5 94.1875H85.5C85.5 91.7064 85.5311 89.7362 85.5913 88.263C85.6546 86.7107 85.7444 85.917 85.8036 85.6508L79.9464 84.3492ZM79.5 94.1875C79.5 100.206 79.7487 104.892 80.2911 108.135C80.5573 109.727 80.9291 111.199 81.5061 112.349C82.0262 113.386 83.2342 115.125 85.5 115.125V109.125C86.7658 109.125 87.0988 110.117 86.8689 109.659C86.6959 109.314 86.4427 108.543 86.2089 107.146C85.7513 104.41 85.5 100.128 85.5 94.1875H79.5ZM155.875 113.125H152.875V114.368L153.754 115.246L155.875 113.125ZM158.688 93.625L155.777 94.3526L155.78 94.3636L155.783 94.3746L158.688 93.625ZM155.312 92.25L153.191 90.1287L152.198 91.1223L152.325 92.5216L155.312 92.25ZM132.5 129.875L134.592 127.725L134.587 127.72L134.581 127.715L132.5 129.875ZM131.875 76.4375L129.74 74.3298L129.74 74.3299L131.875 76.4375ZM182.625 76.8125L184.806 74.7522L184.799 74.7452L182.625 76.8125ZM182.938 129.312L180.781 127.226L180.774 127.234L182.938 129.312ZM152.875 102.188V113.125H158.875V102.188H152.875ZM153.754 115.246C154.87 116.363 156.32 116.562 157.312 116.562V110.562C157.184 110.562 157.207 110.547 157.327 110.583C157.458 110.623 157.727 110.734 157.996 111.004L153.754 115.246ZM157.312 116.562C158.737 116.562 160.309 116.014 161.281 114.486L156.219 111.264C156.367 111.031 156.598 110.818 156.878 110.684C157.132 110.563 157.309 110.562 157.312 110.562V116.562ZM161.281 114.486C162.066 113.253 162.188 111.701 162.188 110.5H156.188C156.188 110.946 156.158 111.232 156.128 111.394C156.114 111.471 156.104 111.494 156.11 111.478C156.115 111.462 156.145 111.381 156.219 111.264L161.281 114.486ZM162.188 110.5V101.562H156.188V110.5H162.188ZM162.188 101.562C162.188 97.6287 162.037 94.5974 161.592 92.8754L155.783 94.3746C156.005 95.2359 156.188 97.4963 156.188 101.562H162.188ZM161.598 92.8974C161.365 91.9654 160.952 90.9208 160.157 90.0732C159.276 89.1328 158.097 88.625 156.812 88.625V94.625C156.67 94.625 156.471 94.5972 156.255 94.5036C156.038 94.4099 155.88 94.2833 155.78 94.1768C155.61 93.9959 155.677 93.9513 155.777 94.3526L161.598 92.8974ZM156.812 88.625C155.424 88.625 154.164 89.1558 153.191 90.1287L157.434 94.3713C157.39 94.4156 157.296 94.4912 157.154 94.5505C157.011 94.6101 156.886 94.625 156.812 94.625V88.625ZM152.325 92.5216C152.696 96.6065 152.875 99.8175 152.875 102.188H158.875C158.875 99.5575 158.679 96.1435 158.3 91.9784L152.325 92.5216ZM134.581 127.715C128.443 121.801 125.25 113.723 125.25 103.125H119.25C119.25 115.027 122.89 124.782 130.419 132.035L134.581 127.715ZM125.25 103.125C125.25 92.4251 128.272 84.3574 134.01 78.5451L129.74 74.3299C122.644 81.5176 119.25 91.2416 119.25 103.125H125.25ZM134.01 78.5452C139.825 72.6548 147.474 69.625 157.25 69.625V63.625C146.11 63.625 136.841 67.1369 129.74 74.3298L134.01 78.5452ZM157.25 69.625C166.992 69.625 174.628 72.7558 180.451 78.8798L184.799 74.7452C177.706 67.2859 168.425 63.625 157.25 63.625V69.625ZM180.444 78.8728C186.247 85.0147 189.25 93.0865 189.25 103.375H195.25C195.25 91.8302 191.836 82.1937 184.806 74.7522L180.444 78.8728ZM189.25 103.375C189.25 113.651 186.335 121.486 180.781 127.226L185.094 131.399C191.957 124.305 195.25 114.849 195.25 103.375H189.25ZM180.774 127.234C175.282 132.949 167.729 135.938 157.75 135.938V141.938C169.021 141.938 178.26 138.509 185.101 131.391L180.774 127.234ZM157.75 135.938C147.719 135.938 140.119 133.104 134.592 127.725L130.408 132.025C137.297 138.73 146.531 141.938 157.75 141.938V135.938ZM228.375 113.125H225.375V114.368L226.254 115.246L228.375 113.125ZM231.188 93.625L228.277 94.3526L228.28 94.3636L228.283 94.3746L231.188 93.625ZM227.812 92.25L225.691 90.1287L224.698 91.1223L224.825 92.5216L227.812 92.25ZM205 129.875L207.092 127.725L207.087 127.72L207.081 127.715L205 129.875ZM204.375 76.4375L202.24 74.3298L202.24 74.3299L204.375 76.4375ZM255.125 76.8125L257.306 74.7522L257.299 74.7452L255.125 76.8125ZM255.438 129.312L253.281 127.226L253.274 127.234L255.438 129.312ZM225.375 102.188V113.125H231.375V102.188H225.375ZM226.254 115.246C227.37 116.363 228.82 116.562 229.812 116.562V110.562C229.684 110.562 229.707 110.547 229.827 110.583C229.958 110.623 230.227 110.734 230.496 111.004L226.254 115.246ZM229.812 116.562C231.237 116.562 232.809 116.014 233.781 114.486L228.719 111.264C228.867 111.031 229.098 110.818 229.378 110.684C229.632 110.563 229.809 110.562 229.812 110.562V116.562ZM233.781 114.486C234.566 113.253 234.688 111.701 234.688 110.5H228.688C228.688 110.946 228.658 111.232 228.628 111.394C228.614 111.471 228.604 111.494 228.61 111.478C228.615 111.462 228.645 111.381 228.719 111.264L233.781 114.486ZM234.688 110.5V101.562H228.688V110.5H234.688ZM234.688 101.562C234.688 97.6287 234.537 94.5974 234.092 92.8754L228.283 94.3746C228.505 95.2359 228.688 97.4963 228.688 101.562H234.688ZM234.098 92.8974C233.865 91.9654 233.452 90.9208 232.657 90.0732C231.776 89.1328 230.597 88.625 229.312 88.625V94.625C229.17 94.625 228.971 94.5972 228.755 94.5036C228.538 94.4099 228.38 94.2833 228.28 94.1768C228.11 93.9959 228.177 93.9513 228.277 94.3526L234.098 92.8974ZM229.312 88.625C227.924 88.625 226.664 89.1558 225.691 90.1287L229.934 94.3713C229.89 94.4156 229.796 94.4912 229.654 94.5505C229.511 94.6101 229.386 94.625 229.312 94.625V88.625ZM224.825 92.5216C225.196 96.6065 225.375 99.8175 225.375 102.188H231.375C231.375 99.5575 231.179 96.1435 230.8 91.9784L224.825 92.5216ZM207.081 127.715C200.943 121.801 197.75 113.723 197.75 103.125H191.75C191.75 115.027 195.39 124.782 202.919 132.035L207.081 127.715ZM197.75 103.125C197.75 92.4251 200.772 84.3574 206.51 78.5451L202.24 74.3299C195.144 81.5176 191.75 91.2416 191.75 103.125H197.75ZM206.51 78.5452C212.325 72.6548 219.974 69.625 229.75 69.625V63.625C218.61 63.625 209.341 67.1369 202.24 74.3298L206.51 78.5452ZM229.75 69.625C239.492 69.625 247.128 72.7558 252.951 78.8798L257.299 74.7452C250.206 67.2859 240.925 63.625 229.75 63.625V69.625ZM252.944 78.8728C258.747 85.0147 261.75 93.0865 261.75 103.375H267.75C267.75 91.8302 264.336 82.1937 257.306 74.7522L252.944 78.8728ZM261.75 103.375C261.75 113.651 258.835 121.486 253.281 127.226L257.594 131.399C264.457 124.305 267.75 114.849 267.75 103.375H261.75ZM253.274 127.234C247.782 132.949 240.229 135.938 230.25 135.938V141.938C241.521 141.938 250.76 138.509 257.601 131.391L253.274 127.234ZM230.25 135.938C220.219 135.938 212.619 133.104 207.092 127.725L202.908 132.025C209.797 138.73 219.031 141.938 230.25 141.938V135.938ZM299.375 113.5L302.361 113.206L301.956 109.096L298.173 110.752L299.375 113.5ZM296.375 114.812L295.173 112.064L293.375 112.85V114.812H296.375ZM298 123.75L300.869 122.873L300.855 122.826L300.839 122.779L298 123.75ZM301.812 131.75L303.965 133.839L305.688 132.065L304.274 130.036L301.812 131.75ZM273.688 134.812L275.434 132.374L275.419 132.363L275.404 132.352L273.688 134.812ZM268.312 51.9375L266.801 49.3462L265.312 50.2144V51.9375H268.312ZM275.5 49.0625L274.732 46.1624L274.722 46.1652L275.5 49.0625ZM295.938 50.75L297.525 48.2043L297.503 48.1907L297.481 48.1775L295.938 50.75ZM298.312 83.125L300.779 84.8326L300.995 84.5213L301.126 84.1662L298.312 83.125ZM296.312 85.5L298.478 87.5757L298.5 87.5537L298.52 87.5312L296.312 85.5ZM294 88.25L291.542 86.5296L291.513 86.5718L291.485 86.615L294 88.25ZM294.688 92.0625L293.346 94.7458L295.213 95.6794L296.737 94.2529L294.688 92.0625ZM302.312 82.125L299.654 80.7341L299.648 80.7463L299.642 80.7586L302.312 82.125ZM307.438 67.875L306.981 64.9099L305.032 65.2098L304.534 67.1186L307.438 67.875ZM312.812 67L313.269 69.9651L313.299 69.9604L313.33 69.9551L312.812 67ZM331.312 71L329.403 73.3135L329.411 73.3201L329.419 73.3267L331.312 71ZM331.812 96.25L334.03 98.2708L334.044 98.2555L334.058 98.2399L331.812 96.25ZM320.125 103.688L319.139 100.854L313.006 102.987L318.606 106.275L320.125 103.688ZM334.625 108.5L337.253 107.052L336.549 105.776L335.111 105.54L334.625 108.5ZM333.625 133.062L335.786 135.143L335.795 135.134L335.804 135.124L333.625 133.062ZM306 131.562L303.692 133.479L303.702 133.491L303.711 133.502L306 131.562ZM298.173 110.752L295.173 112.064L297.577 117.561L300.577 116.248L298.173 110.752ZM293.375 114.812C293.375 117.993 293.992 121.302 295.162 124.721L300.839 122.779C299.841 119.865 299.375 117.216 299.375 114.812H293.375ZM295.131 124.627C296.13 127.895 297.53 130.85 299.351 133.464L304.274 130.036C302.845 127.984 301.704 125.605 300.869 122.873L295.131 124.627ZM299.66 129.661C296.229 133.196 291.353 135.125 284.625 135.125V141.125C292.564 141.125 299.146 138.804 303.965 133.839L299.66 129.661ZM284.625 135.125C280.971 135.125 277.953 134.177 275.434 132.374L271.941 137.251C275.589 139.864 279.862 141.125 284.625 141.125V135.125ZM275.404 132.352C272.569 130.374 271.312 127.953 271.312 124.875H265.312C265.312 130.047 267.64 134.251 271.971 137.273L275.404 132.352ZM271.312 124.875V51.9375H265.312V124.875H271.312ZM269.824 54.5288C271.546 53.5246 273.683 52.6571 276.278 51.9598L274.722 46.1652C271.734 46.9679 269.079 48.0171 266.801 49.3462L269.824 54.5288ZM276.268 51.9626C278.855 51.2776 281.452 50.9375 284.062 50.9375V44.9375C280.923 44.9375 277.811 45.3474 274.732 46.1624L276.268 51.9626ZM284.062 50.9375C288.477 50.9375 291.86 51.8022 294.394 53.3225L297.481 48.1775C293.765 45.9478 289.231 44.9375 284.062 44.9375V50.9375ZM294.35 53.2957C297.026 54.964 298.25 57.1754 298.25 60.25H304.25C304.25 55.0746 301.932 50.9526 297.525 48.2043L294.35 53.2957ZM298.25 60.25V66.875H304.25V60.25H298.25ZM298.25 66.875C298.25 72.0548 297.336 77.1192 295.499 82.0838L301.126 84.1662C303.205 78.5474 304.25 72.7786 304.25 66.875H298.25ZM295.846 81.4174C295.597 81.7773 295.05 82.4409 294.105 83.4688L298.52 87.5312C299.491 86.4758 300.278 85.556 300.779 84.8326L295.846 81.4174ZM294.147 83.4243C293.117 84.4984 292.239 85.5348 291.542 86.5296L296.458 89.9704C296.928 89.2985 297.591 88.5016 298.478 87.5757L294.147 83.4243ZM291.485 86.615C290.797 87.6724 290.188 88.9829 290.188 90.4375H296.188C296.188 90.5568 296.162 90.5754 296.203 90.4664C296.244 90.3569 296.333 90.1647 296.515 89.885L291.485 86.615ZM290.188 90.4375C290.188 92.9142 292.256 94.201 293.346 94.7458L296.029 89.3792C295.703 89.2162 295.678 89.1501 295.767 89.2464C295.822 89.3058 295.929 89.4372 296.023 89.6488C296.121 89.8701 296.188 90.1406 296.188 90.4375H290.188ZM296.737 94.2529C300.214 90.9994 302.976 87.4141 304.983 83.4914L299.642 80.7586C297.982 84.0025 295.661 87.0423 292.638 89.8721L296.737 94.2529ZM304.971 83.5159C306.99 79.6566 308.768 74.6684 310.341 68.6314L304.534 67.1186C303.024 72.9149 301.385 77.4268 299.654 80.7341L304.971 83.5159ZM307.894 70.8401C308.463 70.7526 309.11 70.6446 309.834 70.5168L308.791 64.6082C308.098 64.7304 307.496 64.8307 306.981 64.9099L307.894 70.8401ZM309.834 70.5168C310.507 70.3981 311.645 70.2149 313.269 69.9651L312.356 64.0349C310.73 64.2851 309.535 64.4769 308.791 64.6082L309.834 70.5168ZM313.33 69.9551C315.007 69.6615 315.938 69.5625 316.312 69.5625V63.5625C315.354 63.5625 313.951 63.7551 312.295 64.0449L313.33 69.9551ZM316.312 69.5625C322.296 69.5625 326.53 70.9419 329.403 73.3135L333.222 68.6865C328.928 65.1415 323.163 63.5625 316.312 63.5625V69.5625ZM329.419 73.3267C332.22 75.6066 333.688 78.7281 333.688 83.0625H339.688C339.688 77.1469 337.572 72.2267 333.206 68.6733L329.419 73.3267ZM333.688 83.0625C333.688 87.4911 332.307 91.1692 329.567 94.2601L334.058 98.2399C337.818 93.9975 339.688 88.8839 339.688 83.0625H333.688ZM329.595 94.2292C326.976 97.1029 323.526 99.3284 319.139 100.854L321.111 106.521C326.308 104.713 330.649 101.98 334.03 98.2708L329.595 94.2292ZM318.606 106.275C322.844 108.762 328.054 110.461 334.139 111.46L335.111 105.54C329.529 104.623 325.073 103.113 321.644 101.1L318.606 106.275ZM331.997 109.948C334.005 113.591 335 117.448 335 121.562H341C341 116.427 339.745 111.575 337.253 107.052L331.997 109.948ZM335 121.562C335 125.446 333.791 128.522 331.446 131.001L335.804 135.124C339.292 131.437 341 126.846 341 121.562H335ZM331.464 130.982C328.904 133.641 325.258 135.125 320.125 135.125V141.125C326.492 141.125 331.846 139.234 335.786 135.143L331.464 130.982ZM320.125 135.125C315.303 135.125 311.43 133.329 308.289 129.623L303.711 133.502C307.987 138.546 313.53 141.125 320.125 141.125V135.125ZM308.308 129.646C305.133 125.822 303.071 120.431 302.361 113.206L296.389 113.794C297.179 121.819 299.533 128.47 303.692 133.479L308.308 129.646ZM372.25 80.75H375.25V79.6791L374.572 78.8503L372.25 80.75ZM376.75 117.625L379.692 117.037L379.438 115.767L378.34 115.081L376.75 117.625ZM371.812 133.75L369.775 131.548L369.763 131.559L369.751 131.571L371.812 133.75ZM346.75 133.75L344.767 136.001L344.774 136.008L346.75 133.75ZM340.438 76.875L338.681 74.443L337.438 75.3411V76.875H340.438ZM345.625 74.3125L347.013 76.9723L352.161 74.2864L346.991 71.6418L345.625 74.3125ZM340.75 69.5625L338.219 71.1731L338.226 71.1837L338.233 71.1942L340.75 69.5625ZM343.75 48.6875L341.668 46.5275L343.75 48.6875ZM369.062 48.8125L366.928 50.9208L366.941 50.9339L366.954 50.9468L369.062 48.8125ZM370.312 72.4375L372.612 74.3642L372.618 74.3566L372.625 74.3489L370.312 72.4375ZM360.875 78.25L360.249 75.3161L357.875 75.8228V78.25H360.875ZM369.188 78.125L371.025 75.7538L369.212 74.3483L367.38 75.7304L369.188 78.125ZM369.25 80.75V105.5H375.25V80.75H369.25ZM369.25 105.5C369.25 111.962 370.78 117.431 375.16 120.169L378.34 115.081C376.72 114.069 375.25 111.454 375.25 105.5H369.25ZM373.808 118.213C373.794 118.143 373.791 118.107 373.793 118.125C373.795 118.138 373.798 118.173 373.801 118.236C373.808 118.363 373.812 118.551 373.812 118.812H379.812C379.812 118.26 379.8 117.578 379.692 117.037L373.808 118.213ZM373.812 118.812V119.938H379.812V118.812H373.812ZM373.812 119.938C373.812 125.53 372.303 129.21 369.775 131.548L373.85 135.952C377.989 132.123 379.812 126.595 379.812 119.938H373.812ZM369.751 131.571C367.341 133.851 364.013 135.125 359.438 135.125V141.125C365.195 141.125 370.118 139.483 373.874 135.929L369.751 131.571ZM359.438 135.125C354.918 135.125 351.427 133.856 348.726 131.492L344.774 136.008C348.739 139.477 353.707 141.125 359.438 141.125V135.125ZM348.733 131.499C345.338 128.507 343.438 124.013 343.438 117.5H337.438C337.438 125.237 339.746 131.576 344.767 136.001L348.733 131.499ZM343.438 117.5V76.875H337.438V117.5H343.438ZM342.194 79.307C342.729 78.9206 343.31 78.6072 343.943 78.366L341.807 72.759C340.69 73.1845 339.646 73.7461 338.681 74.443L342.194 79.307ZM343.943 78.366C344.942 77.9852 345.966 77.5183 347.013 76.9723L344.237 71.6527C343.367 72.1067 342.558 72.4731 341.807 72.759L343.943 78.366ZM346.991 71.6418C345.798 71.0313 344.532 69.8813 343.267 67.9308L338.233 71.1942C339.885 73.7437 341.868 75.7604 344.259 76.9832L346.991 71.6418ZM343.281 67.9519C342.165 66.1977 341.562 64.1041 341.562 61.5625H335.562C335.562 65.1042 336.419 68.3439 338.219 71.1731L343.281 67.9519ZM341.562 61.5625C341.562 57.0434 343.018 53.5597 345.832 50.8475L341.668 46.5275C337.565 50.482 335.562 55.5816 335.562 61.5625H341.562ZM345.832 50.8475C348.706 48.0771 352.179 46.6875 356.438 46.6875V40.6875C350.696 40.6875 345.71 42.6313 341.668 46.5275L345.832 50.8475ZM356.438 46.6875C360.722 46.6875 364.147 48.1056 366.928 50.9208L371.197 46.7042C367.228 42.6861 362.237 40.6875 356.438 40.6875V46.6875ZM366.954 50.9468C369.759 53.7175 371.188 57.1797 371.188 61.5625H377.188C377.188 55.6953 375.199 50.6575 371.171 46.6782L366.954 50.9468ZM371.188 61.5625C371.188 65.003 370.131 67.949 368 70.5261L372.625 74.3489C375.661 70.676 377.188 66.372 377.188 61.5625H371.188ZM368.013 70.5108C365.831 73.1146 363.261 74.673 360.249 75.3161L361.501 81.1839C365.906 80.2437 369.627 77.927 372.612 74.3642L368.013 70.5108ZM357.875 78.25C357.875 79.3384 358.068 80.7043 358.943 81.8513C359.936 83.1516 361.371 83.625 362.688 83.625V77.625C362.709 77.625 362.869 77.6285 363.095 77.7274C363.339 77.834 363.557 78.0068 363.713 78.2112C363.857 78.3995 363.894 78.5424 363.896 78.5495C363.897 78.5527 363.875 78.4648 363.875 78.25H357.875ZM362.688 83.625C365.638 83.625 368.423 82.4602 370.995 80.5196L367.38 75.7304C365.535 77.1231 363.987 77.625 362.688 77.625V83.625ZM367.35 80.4962C368.163 81.1267 368.793 81.635 369.251 82.0278C369.48 82.2239 369.652 82.3792 369.775 82.4975C369.909 82.625 369.945 82.6701 369.928 82.6497L374.572 78.8503C373.937 78.0746 372.612 76.9833 371.025 75.7538L367.35 80.4962ZM385 97.5V94.5H382V97.5H385ZM391.875 94.6875L394.785 93.9599L394.217 91.6875H391.875V94.6875ZM377.875 94.6875L375.013 95.587L375.673 97.6875H377.875V94.6875ZM377.312 76.125L375.711 73.5885L374.681 74.2388L374.396 75.4228L377.312 76.125ZM387.125 69.25L388.91 71.6615L389.581 71.1646L389.899 70.3923L387.125 69.25ZM391.688 55.75L394.558 56.6227L394.561 56.612L391.688 55.75ZM392.562 53.3125L391.817 50.4065L390.375 50.7763L389.798 52.1483L392.562 53.3125ZM416 53.375H419V50.955L416.635 50.4429L416 53.375ZM416 68.6875H413V71.6875H416V68.6875ZM426.812 68.6875L429.317 67.0366L428.428 65.6875H426.812V68.6875ZM426.812 94.625V97.625H428.374L429.27 96.3454L426.812 94.625ZM417.875 94.625V91.625H414.875V94.625H417.875ZM427.25 112.062L430.142 111.263L429.533 109.062H427.25V112.062ZM423.125 133.562L425.066 135.85L425.069 135.848L423.125 133.562ZM391.062 132.438L388.998 134.614L389.01 134.625L389.021 134.636L391.062 132.438ZM385 100.5H388.875V94.5H385V100.5ZM388.875 100.5C390.151 100.5 391.631 100.307 392.871 99.4882C394.33 98.5257 395 97.0119 395 95.4375H389C389 95.4001 389.009 95.2215 389.127 94.9874C389.251 94.7415 389.427 94.5727 389.566 94.4805C389.686 94.4016 389.726 94.413 389.598 94.4412C389.471 94.469 389.24 94.5 388.875 94.5V100.5ZM395 95.4375C395 94.8835 394.879 94.3355 394.785 93.9599L388.965 95.4151C388.978 95.4704 388.989 95.5152 388.996 95.5505C389.004 95.5861 389.008 95.6081 389.01 95.6182C389.01 95.623 389.01 95.6235 389.01 95.6202C389.009 95.6169 389.008 95.6085 389.007 95.5954C389.006 95.5824 389.004 95.5628 389.003 95.5375C389.001 95.5123 389 95.4786 389 95.4375H395ZM391.875 91.6875H377.875V97.6875H391.875V91.6875ZM380.737 93.788C379.926 91.2075 379.5 88.2669 379.5 84.9375H373.5C373.5 88.7748 373.991 92.3342 375.013 95.587L380.737 93.788ZM379.5 84.9375C379.5 81.4319 379.765 78.756 380.229 76.8272L374.396 75.4228C373.777 77.994 373.5 81.1931 373.5 84.9375H379.5ZM378.914 78.6615C381.383 77.1021 384.724 74.7588 388.91 71.6615L385.34 66.8385C381.193 69.9079 377.992 72.1479 375.711 73.5885L378.914 78.6615ZM389.899 70.3923C391.123 67.419 392.678 62.8041 394.558 56.6227L388.817 54.8773C386.947 61.0292 385.46 65.4144 384.351 68.1077L389.899 70.3923ZM394.561 56.612C394.781 55.88 395.036 55.1684 395.327 54.4767L389.798 52.1483C389.422 53.04 389.094 53.9534 388.814 54.888L394.561 56.612ZM393.308 56.2185C396.264 55.4605 399.714 55.0625 403.688 55.0625V49.0625C399.327 49.0625 395.361 49.4979 391.817 50.4065L393.308 56.2185ZM403.688 55.0625C407.642 55.0625 411.534 55.4776 415.365 56.3071L416.635 50.4429C412.383 49.5224 408.066 49.0625 403.688 49.0625V55.0625ZM413 53.375V68.6875H419V53.375H413ZM416 71.6875H426.812V65.6875H416V71.6875ZM424.308 70.3384C426.361 73.4536 427.438 77.1753 427.438 81.625H433.438C433.438 76.158 432.098 71.2547 429.317 67.0366L424.308 70.3384ZM427.438 81.625C427.438 83.595 427.164 85.6507 426.599 87.799L432.401 89.326C433.086 86.7243 433.438 84.155 433.438 81.625H427.438ZM426.599 87.799C426.046 89.9003 425.281 91.5814 424.355 92.9046L429.27 96.3454C430.677 94.3353 431.704 91.9747 432.401 89.326L426.599 87.799ZM426.812 91.625H417.875V97.625H426.812V91.625ZM414.875 94.625V104.062H420.875V94.625H414.875ZM414.875 104.062C414.875 107.074 415.493 109.891 417.245 111.987C419.083 114.185 421.716 115.062 424.562 115.062V109.062C422.951 109.062 422.24 108.606 421.849 108.138C421.371 107.568 420.875 106.385 420.875 104.062H414.875ZM424.562 115.062H427.25V109.062H424.562V115.062ZM424.358 112.862C425.188 115.865 425.562 118.334 425.562 120.312H431.562C431.562 117.624 431.062 114.593 430.142 111.263L424.358 112.862ZM425.562 120.312C425.562 125.384 423.997 128.882 421.181 131.277L425.069 135.848C429.503 132.076 431.562 126.741 431.562 120.312H425.562ZM421.184 131.275C418.345 133.685 413.922 135.125 407.438 135.125V141.125C414.703 141.125 420.738 139.523 425.066 135.85L421.184 131.275ZM407.438 135.125C401.181 135.125 396.513 133.405 393.104 130.239L389.021 134.636C393.779 139.054 400.027 141.125 407.438 141.125V135.125ZM393.127 130.261C389.862 127.164 388 122.44 388 115.562H382C382 123.518 384.18 130.045 388.998 134.614L393.127 130.261ZM388 115.562V97.5H382V115.562H388ZM449.5 77.25L447.1 79.05L447.357 79.3929L447.7 79.65L449.5 77.25ZM449.062 76.625L451.559 74.9609L449.972 72.5808L447.519 74.0525L449.062 76.625ZM434.375 74.5L436.496 72.3787L436.469 72.3515L436.441 72.325L434.375 74.5ZM434.938 54.5625L436.943 56.794L436.944 56.7924L434.938 54.5625ZM458.625 56.0625L456.327 57.9908L456.333 57.9985L456.34 58.0062L458.625 56.0625ZM457.688 85.8125L455.543 83.7149L455.542 83.7151L457.688 85.8125ZM436.75 89.3125L434.958 91.7186L434.975 91.731L434.992 91.7432L436.75 89.3125ZM435.312 78.625L436.89 76.0732L434.706 74.723L433.035 76.6726L435.312 78.625ZM447.812 80.0625L446.809 77.2352L446.794 77.2405L446.78 77.2459L447.812 80.0625ZM452.75 78.0625C452.75 77.6819 452.715 77.186 452.555 76.6646C452.393 76.1376 452.045 75.4085 451.3 74.85L447.7 79.65C447.122 79.2165 446.899 78.6853 446.82 78.4291C446.743 78.1786 446.75 78.0264 446.75 78.0625H452.75ZM451.9 75.45C451.819 75.3424 451.707 75.183 451.559 74.9609L446.566 78.2891C446.752 78.567 446.931 78.8243 447.1 79.05L451.9 75.45ZM447.519 74.0525C446.709 74.5386 445.3 74.9375 443 74.9375V80.9375C445.866 80.9375 448.5 80.4614 450.606 79.1975L447.519 74.0525ZM443 74.9375C440.278 74.9375 438.185 74.0673 436.496 72.3787L432.254 76.6213C435.148 79.5161 438.805 80.9375 443 80.9375V74.9375ZM436.441 72.325C434.586 70.5623 433.625 68.3301 433.625 65.375H427.625C427.625 69.8365 429.164 73.6877 432.309 76.675L436.441 72.325ZM433.625 65.375C433.625 61.4189 434.825 58.6969 436.943 56.794L432.932 52.331C429.3 55.5948 427.625 60.0811 427.625 65.375H433.625ZM436.944 56.7924C439.224 54.7405 442.2 53.625 446.125 53.625V47.625C440.966 47.625 436.484 49.1345 432.931 52.3326L436.944 56.7924ZM446.125 53.625C450.648 53.625 453.927 55.1307 456.327 57.9908L460.923 54.1342C457.24 49.7443 452.185 47.625 446.125 47.625V53.625ZM456.34 58.0062C458.888 61.0015 460.25 64.8595 460.25 69.8125H466.25C466.25 63.6822 464.529 58.3735 460.91 54.1188L456.34 58.0062ZM460.25 69.8125C460.25 76.145 458.554 80.6356 455.543 83.7149L459.832 87.9101C464.237 83.4061 466.25 77.23 466.25 69.8125H460.25ZM455.542 83.7151C452.425 86.9031 448.797 88.4375 444.5 88.4375V94.4375C450.453 94.4375 455.616 92.2219 459.833 87.9099L455.542 83.7151ZM444.5 88.4375C441.718 88.4375 439.811 87.8242 438.508 86.8818L434.992 91.7432C437.606 93.6342 440.865 94.4375 444.5 94.4375V88.4375ZM438.542 86.9064C437.38 86.0408 436.812 84.9518 436.812 83.3125H430.812C430.812 86.7565 432.204 89.6675 434.958 91.7186L438.542 86.9064ZM436.812 83.3125C436.812 81.8686 437.173 81.0646 437.59 80.5774L433.035 76.6726C431.452 78.5187 430.812 80.8397 430.812 83.3125H436.812ZM433.735 81.1768C436.435 82.8461 439.308 83.75 442.312 83.75V77.75C440.567 77.75 438.773 77.2372 436.89 76.0732L433.735 81.1768ZM442.312 83.75C444.843 83.75 447.097 83.5202 448.845 82.8791L446.78 77.2459C446.028 77.5215 444.616 77.75 442.312 77.75V83.75ZM448.816 82.8898C450.516 82.2866 452.75 80.879 452.75 78.0625H446.75C446.75 77.9023 446.782 77.7121 446.862 77.5205C446.941 77.3322 447.041 77.2036 447.111 77.1314C447.176 77.0642 447.205 77.0555 447.154 77.0853C447.103 77.1151 446.995 77.1694 446.809 77.2352L448.816 82.8898Z" fill="#E3BF22"/>
</svg>
